# xmcd CD database file
#
# Track frame offsets:
#	150
#	28318
#	66901
#	110546
#	144294
#	185222
#	214022
#	256163
#	286303
#
# Disc length: 4233 seconds
#
# Revision: 2
# Processed by: cddbd v1.5PL3 Copyright (c) Steve Scherf et al.
# Submitted via: CDex 1.50
#
DISCID=8b108709
DTITLE=Without Address band - Fusion
DYEAR=2003
DGENRE=Jazz
TTITLE0=Balloons Of Many Colors
TTITLE1=First Train Blues
TTITLE2=Axelbanty (Aglets)
TTITLE3=Police
TTITLE4=S.P.B.
TTITLE5=A Little Crazy
TTITLE6=Oriental Shock
TTITLE7=We Cannot Play Blues, But Subway Is Clean Here
TTITLE8=My Customer's Rhythm
EXTD=YEAR: 2003
EXTT0=
EXTT1=
EXTT2=
EXTT3=
EXTT4=
EXTT5=
EXTT6=
EXTT7=
EXTT8=
PLAYORDER=
